<?xml version="1.0" encoding="utf-8"?>
<!-- Generator: Adobe Illustrator 21.0.2, SVG Export Plug-In . SVG Version: 6.00 Build 0)  -->
<svg version="1.1" id="Layer_1" xmlns="http://www.w3.org/2000/svg" xmlns:xlink="http://www.w3.org/1999/xlink" x="0px" y="0px"
	 width="32.8px" height="32.8px" viewBox="0 0 32.8 32.8" style="enable-background:new 0 0 32.8 32.8;" xml:space="preserve">
<style type="text/css">
	.st0{display:none;}
	.st1{display:inline;fill:none;stroke:#939393;stroke-width:1.5;stroke-miterlimit:10;}
	.st2{display:inline;}
	.st3{fill:#939393;}
	.st4{fill:none;stroke:#939393;stroke-width:1.5;stroke-miterlimit:10;}
</style>
<g class="st0">
	<circle class="st1" cx="16.4" cy="16.4" r="15.5"/>
	<g class="st2">
		<path class="st3" d="M8.3,22.8c0.2,0.1,0.3,0.2,0.5,0.3c2.7,1.4,5.5,1.6,8.3,0.7c4.1-1.3,7.1-5.3,7.2-9.7c0-0.6,0.1-1,0.6-1.4
			c0.4-0.3,0.8-0.7,1.1-1.3c-0.6,0.2-1.2,0.4-1.8,0.4c0.6-0.5,1-1.1,1.3-1.9c-0.7,0.3-1.2,0.6-1.9,0.7c-0.3,0.1-0.5,0-0.7-0.2
			c-1.2-1-2.6-1.2-4-0.5c-1.5,0.7-2.1,1.9-2.1,3.5c0,0.7,0,0.7-0.7,0.6c-2.6-0.3-4.8-1.5-6.6-3.4c-0.3-0.4-0.4-0.4-0.6,0.1
			c-0.5,1.4-0.2,3,0.9,4c0.1,0.1,0.3,0.2,0.3,0.4c-0.4,0.1-0.7-0.1-1.1-0.2c-0.3-0.1-0.4,0-0.4,0.3c0.2,1.4,1,2.4,2.3,3
			c0.1,0.1,0.3,0.1,0.4,0.3c-0.3,0.1-0.6,0.1-0.9,0.1c-0.5,0-0.5,0.1-0.3,0.5c0.1,0.1,0.1,0.2,0.2,0.4c0.6,0.9,1.4,1.4,2.5,1.6
			c0.1,0,0.3,0,0.3,0.1c0,0.1-0.1,0.2-0.2,0.3c-0.4,0.3-0.8,0.5-1.3,0.7C10.7,22.6,9.5,22.8,8.3,22.8z"/>
	</g>
</g>
<g class="st0">
	<circle class="st1" cx="16.4" cy="16.4" r="15.5"/>
	<g class="st2">
		<path class="st3" d="M16.4,7.9c1.1,0,2.3,0,3.4,0.1c1,0,1.9,0.2,2.8,0.7c1.1,0.7,1.8,1.7,2.1,3c0.1,0.8,0.2,1.6,0.2,2.4
			c0,1.7,0,3.4,0,5.1c0,0.9,0,1.8-0.3,2.6c-0.6,1.7-1.7,2.7-3.4,3c-0.8,0.1-1.6,0.2-2.4,0.2c-1.7,0-3.4,0-5.1,0
			c-0.9,0-1.8,0-2.6-0.3c-1.7-0.6-2.7-1.7-3-3.4c-0.1-0.8-0.2-1.6-0.2-2.4c0-1.7,0-3.4,0-5.1c0-0.9,0-1.8,0.3-2.6
			c0.6-1.7,1.7-2.7,3.4-3c0.8-0.1,1.6-0.2,2.4-0.2C14.8,7.9,15.6,7.9,16.4,7.9C16.4,7.9,16.4,7.9,16.4,7.9z M23.4,16.3
			c0-0.7,0-1.3,0-2c0-0.6,0-1.3-0.1-1.9c-0.1-1.4-1-2.4-2.4-2.7c-0.8-0.1-1.5-0.2-2.3-0.2c-1.4,0-2.8,0-4.2,0c-0.7,0-1.5,0-2.2,0.1
			c-1.2,0.2-2.1,0.9-2.4,2.1c-0.1,0.4-0.2,0.8-0.2,1.2c0,1.5-0.1,3.1-0.1,4.6c0,1,0,2,0.1,2.9c0.1,1.4,1,2.4,2.4,2.7
			c0.8,0.1,1.6,0.2,2.3,0.2c1.4,0,2.8,0,4.2,0c0.7,0,1.3,0,2-0.1c0.6-0.1,1.2-0.3,1.7-0.6c0.8-0.6,1.1-1.5,1.1-2.5
			C23.4,18.9,23.4,16.3,23.4,16.3z"/>
		<path class="st3" d="M16.4,12c2.4,0,4.4,2,4.4,4.4c0,2.4-2,4.3-4.4,4.3c-2.4,0-4.4-2-4.4-4.4C12,14,14,12,16.4,12z M16.4,13.6
			c-1.6,0-2.8,1.3-2.8,2.8c0,1.6,1.3,2.8,2.8,2.8c1.6,0,2.8-1.3,2.8-2.8C19.3,14.9,18,13.6,16.4,13.6z"/>
		<path class="st3" d="M22,11.9c0,0.6-0.5,1-1,1c-0.6,0-1-0.5-1-1c0-0.6,0.5-1,1-1C21.5,10.8,22,11.3,22,11.9z"/>
	</g>
</g>
<g class="st0">
	<circle class="st1" cx="16.4" cy="16.4" r="15.5"/>
	<g class="st2">
		<path class="st3" d="M10.9,14.1c0,0.1,0,0.1,0,0.1c0,1,0,2.1,0,3.1c0,0.1,0,0.2,0.1,0.2c0.9,0,1.7,0,2.6,0c0.2,0,0.2,0,0.2,0.2
			c0,2.8,0,5.5,0,8.3c0,0.2,0,0.2,0.2,0.2c1,0,2.1,0,3.1,0c0.2,0,0.2,0,0.2-0.2c0-2.8,0-5.6,0-8.4c0-0.2,0-0.2,0.2-0.2
			c0.9,0,1.8,0,2.7,0c0.1,0,0.1,0,0.1-0.1c0-0.4,0.1-0.8,0.2-1.2c0.1-0.5,0.1-1,0.2-1.6c0-0.2,0-0.4,0.1-0.6c-0.1,0-0.1,0-0.2,0
			c-1,0-2,0-3.1,0c-0.1,0-0.2,0-0.1-0.2c0-0.7,0-1.3,0-2c0-0.2,0-0.4,0-0.6c0.1-0.5,0.4-0.9,0.9-1c0.2-0.1,0.5-0.1,0.7-0.1
			c0.6,0,1.1,0,1.7,0c0.1,0,0.1,0,0.1-0.1c0-0.8,0-1.6,0-2.5c0-0.1,0-0.2,0-0.4c0-0.1,0-0.1-0.1-0.1c-0.2,0-0.4,0-0.6,0
			c-0.3,0-0.6,0-1-0.1c-0.7,0-1.4-0.1-2.1,0.1c-1.6,0.3-2.6,1.2-3.1,2.7c-0.2,0.6-0.2,1.2-0.2,1.8c0,0.7,0,1.5,0,2.2
			c0,0.3,0,0.2-0.2,0.2c-0.9,0-1.7,0-2.6,0C11,14.1,11,14.1,10.9,14.1z"/>
	</g>
</g>
<g>
	<circle class="st4" cx="16.4" cy="16.4" r="15.5"/>
	<g>
		<path class="st3" d="M16.4,24.9c-1.7,0-3.5,0-5.2,0c-1.3,0-2.2-0.6-2.9-1.6c-0.3-0.4-0.4-0.9-0.4-1.4c0-0.1,0-0.2,0-0.3
			c0-3.5,0-7,0-10.5c0-1.3,0.5-2.2,1.6-2.9c0.4-0.3,0.9-0.4,1.4-0.4c0.1,0,0.2,0,0.3,0c3.5,0,7,0,10.4,0c1.3,0,2.2,0.5,2.9,1.6
			c0.3,0.4,0.4,0.9,0.4,1.4c0,0.1,0,0.2,0,0.3c0,3.5,0,6.9,0,10.4c0,1.1-0.4,2-1.4,2.7c-0.5,0.4-1.1,0.6-1.7,0.6c-1,0-1.9,0-2.9,0
			C18.1,24.9,17.3,24.9,16.4,24.9z M13.3,14c-1.3,0-2.3,1-2.3,2.3c0,1.3,1,2.3,2.3,2.3c1.3,0,2.3-1,2.3-2.3
			C15.6,15.1,14.6,14,13.3,14z M21.9,16.4c0-1.3-1-2.3-2.3-2.3c-1.3,0-2.3,1-2.3,2.3c0,1.3,1,2.3,2.3,2.3
			C20.8,18.7,21.9,17.7,21.9,16.4z"/>
	</g>
</g>
</svg>
