<?xml version="1.0" encoding="utf-8"?>
<!-- Generator: Adobe Illustrator 21.0.2, SVG Export Plug-In . SVG Version: 6.00 Build 0)  -->
<svg version="1.1" id="Menu" xmlns="http://www.w3.org/2000/svg" xmlns:xlink="http://www.w3.org/1999/xlink" x="0px" y="0px"
	 width="20px" height="20px" viewBox="0 0 20 20" style="enable-background:new 0 0 20 20;" xml:space="preserve">
<style type="text/css">
	.st0{fill:#FFFFFF;}
</style>
<path class="st0" d="M17.4,5.5H2.6c-0.1,0-0.3-0.1-0.3-0.3v0C2.4,5.1,2.5,5,2.6,5h14.7c0.1,0,0.3,0.1,0.3,0.3v0
	C17.6,5.4,17.5,5.5,17.4,5.5z"/>
<path class="st0" d="M17.4,10.3H2.6c-0.1,0-0.3-0.1-0.3-0.3v0c0-0.1,0.1-0.3,0.3-0.3h14.7c0.1,0,0.3,0.1,0.3,0.3v0
	C17.6,10.1,17.5,10.3,17.4,10.3z"/>
<path class="st0" d="M17.4,15H2.6c-0.1,0-0.3-0.1-0.3-0.3v0c0-0.1,0.1-0.3,0.3-0.3h14.7c0.1,0,0.3,0.1,0.3,0.3v0
	C17.6,14.9,17.5,15,17.4,15z"/>
</svg>
